<?xml version="1.0" encoding="UTF-8"?>
<svg width="80px" height="80px" viewBox="0 0 80 80" xmlns="http://www.w3.org/2000/svg">
  <g fill="none" fill-rule="evenodd">
    <circle fill="#E8F5E9" cx="40" cy="40" r="40"/>
    <rect stroke="#4CAF50" stroke-width="2" x="25" y="20" width="30" height="40" rx="2"/>
    <path d="M30,30 L50,30" stroke="#4CAF50" stroke-width="2" stroke-linecap="round"/>
    <path d="M30,40 L50,40" stroke="#4CAF50" stroke-width="2" stroke-linecap="round"/>
    <path d="M30,50 L50,50" stroke="#4CAF50" stroke-width="2" stroke-linecap="round"/>
    <circle fill="#4CAF50" cx="34" cy="25" r="2"/>
    <circle fill="#4CAF50" cx="40" cy="25" r="2"/>
    <circle fill="#4CAF50" cx="46" cy="25" r="2"/>
    <circle fill="#4CAF50" cx="34" cy="35" r="2"/>
    <circle fill="#4CAF50" cx="40" cy="35" r="2"/>
    <circle fill="#4CAF50" cx="46" cy="35" r="2"/>
    <circle fill="#4CAF50" cx="34" cy="45" r="2"/>
    <circle fill="#4CAF50" cx="40" cy="45" r="2"/>
    <circle fill="#4CAF50" cx="46" cy="45" r="2"/>
    <circle fill="#FF9800" cx="58" cy="30" r="8"/>
    <path d="M54,30 L62,30" stroke="#FFFFFF" stroke-width="2" stroke-linecap="round"/>
    <path d="M58,26 L58,34" stroke="#FFFFFF" stroke-width="2" stroke-linecap="round"/>
  </g>
</svg> 