<?xml version="1.0" encoding="UTF-8"?>
<svg width="800px" height="800px" viewBox="0 0 800 800" version="1.1" xmlns="http://www.w3.org/2000/svg">
    <g stroke="none" stroke-width="1" fill="none" fill-rule="evenodd">
        <g transform="translate(0.000000, 0.000000)" fill="#4CAF50" fill-rule="nonzero">
            <circle cx="400" cy="400" r="5" opacity="0.2" />
            <circle cx="200" cy="200" r="5" opacity="0.2" />
            <circle cx="200" cy="600" r="5" opacity="0.2" />
            <circle cx="600" cy="200" r="5" opacity="0.2" />
            <circle cx="600" cy="600" r="5" opacity="0.2" />
            <circle cx="100" cy="100" r="3" opacity="0.15" />
            <circle cx="100" cy="300" r="3" opacity="0.15" />
            <circle cx="100" cy="500" r="3" opacity="0.15" />
            <circle cx="100" cy="700" r="3" opacity="0.15" />
            <circle cx="300" cy="100" r="3" opacity="0.15" />
            <circle cx="300" cy="300" r="3" opacity="0.15" />
            <circle cx="300" cy="500" r="3" opacity="0.15" />
            <circle cx="300" cy="700" r="3" opacity="0.15" />
            <circle cx="500" cy="100" r="3" opacity="0.15" />
            <circle cx="500" cy="300" r="3" opacity="0.15" />
            <circle cx="500" cy="500" r="3" opacity="0.15" />
            <circle cx="500" cy="700" r="3" opacity="0.15" />
            <circle cx="700" cy="100" r="3" opacity="0.15" />
            <circle cx="700" cy="300" r="3" opacity="0.15" />
            <circle cx="700" cy="500" r="3" opacity="0.15" />
            <circle cx="700" cy="700" r="3" opacity="0.15" />
            <path d="M0,0 L50,50" stroke="#4CAF50" stroke-width="1" opacity="0.1" />
            <path d="M100,0 L150,50" stroke="#4CAF50" stroke-width="1" opacity="0.1" />
            <path d="M200,0 L250,50" stroke="#4CAF50" stroke-width="1" opacity="0.1" />
            <path d="M300,0 L350,50" stroke="#4CAF50" stroke-width="1" opacity="0.1" />
            <path d="M400,0 L450,50" stroke="#4CAF50" stroke-width="1" opacity="0.1" />
            <path d="M500,0 L550,50" stroke="#4CAF50" stroke-width="1" opacity="0.1" />
            <path d="M600,0 L650,50" stroke="#4CAF50" stroke-width="1" opacity="0.1" />
            <path d="M700,0 L750,50" stroke="#4CAF50" stroke-width="1" opacity="0.1" />
            <path d="M0,100 L50,150" stroke="#4CAF50" stroke-width="1" opacity="0.1" />
            <path d="M100,100 L150,150" stroke="#4CAF50" stroke-width="1" opacity="0.1" />
            <path d="M200,100 L250,150" stroke="#4CAF50" stroke-width="1" opacity="0.1" />
            <path d="M300,100 L350,150" stroke="#4CAF50" stroke-width="1" opacity="0.1" />
            <path d="M400,100 L450,150" stroke="#4CAF50" stroke-width="1" opacity="0.1" />
            <path d="M500,100 L550,150" stroke="#4CAF50" stroke-width="1" opacity="0.1" />
            <path d="M600,100 L650,150" stroke="#4CAF50" stroke-width="1" opacity="0.1" />
            <path d="M700,100 L750,150" stroke="#4CAF50" stroke-width="1" opacity="0.1" />
            <path d="M0,200 L50,250" stroke="#4CAF50" stroke-width="1" opacity="0.1" />
            <path d="M100,200 L150,250" stroke="#4CAF50" stroke-width="1" opacity="0.1" />
            <path d="M200,200 L250,250" stroke="#4CAF50" stroke-width="1" opacity="0.1" />
            <path d="M300,200 L350,250" stroke="#4CAF50" stroke-width="1" opacity="0.1" />
            <path d="M400,200 L450,250" stroke="#4CAF50" stroke-width="1" opacity="0.1" />
            <path d="M500,200 L550,250" stroke="#4CAF50" stroke-width="1" opacity="0.1" />
            <path d="M600,200 L650,250" stroke="#4CAF50" stroke-width="1" opacity="0.1" />
            <path d="M700,200 L750,250" stroke="#4CAF50" stroke-width="1" opacity="0.1" />
        </g>
    </g>
</svg> 