<?xml version="1.0" encoding="UTF-8"?>
<svg width="200px" height="200px" viewBox="0 0 200 200" version="1.1" xmlns="http://www.w3.org/2000/svg">
    <g stroke="none" stroke-width="1" fill="none" fill-rule="evenodd">
        <circle fill="#4CAF50" cx="100" cy="100" r="80"></circle>
        <path d="M100,40 C73.490,40 52,61.490 52,88 C52,114.510 73.490,136 100,136 C126.510,136 148,114.510 148,88 C148,61.490 126.510,40 100,40 Z M70,88 L80,88 L80,120 L70,120 L70,88 Z M95,88 L95,120 L85,120 L85,88 L95,88 Z M110,88 L120,88 L120,120 L110,120 L110,88 Z M130,88 L130,120 L125,120 L125,88 L130,88 Z" fill="#FFFFFF" fill-rule="nonzero"></path>
        <path d="M130,60 C130,65.523 125.523,70 120,70 C114.477,70 110,65.523 110,60 C110,54.477 114.477,50 120,50 C125.523,50 130,54.477 130,60 Z" fill="#FFFFFF"></path>
        <path d="M95,60 C95,65.523 90.523,70 85,70 C79.477,70 75,65.523 75,60 C75,54.477 79.477,50 85,50 C90.523,50 95,54.477 95,60 Z" fill="#FFFFFF"></path>
    </g>
</svg> 