<?xml version="1.0" encoding="UTF-8"?>
<svg width="800px" height="800px" viewBox="0 0 800 800" version="1.1" xmlns="http://www.w3.org/2000/svg">
    <g stroke="none" stroke-width="1" fill="none" fill-rule="evenodd">
        <g fill="#FFFFFF" fill-rule="nonzero">
            <circle cx="100" cy="100" r="8" opacity="0.3" />
            <circle cx="100" cy="300" r="8" opacity="0.3" />
            <circle cx="100" cy="500" r="8" opacity="0.3" />
            <circle cx="100" cy="700" r="8" opacity="0.3" />
            <circle cx="300" cy="100" r="8" opacity="0.3" />
            <circle cx="300" cy="300" r="8" opacity="0.3" />
            <circle cx="300" cy="500" r="8" opacity="0.3" />
            <circle cx="300" cy="700" r="8" opacity="0.3" />
            <circle cx="500" cy="100" r="8" opacity="0.3" />
            <circle cx="500" cy="300" r="8" opacity="0.3" />
            <circle cx="500" cy="500" r="8" opacity="0.3" />
            <circle cx="500" cy="700" r="8" opacity="0.3" />
            <circle cx="700" cy="100" r="8" opacity="0.3" />
            <circle cx="700" cy="300" r="8" opacity="0.3" />
            <circle cx="700" cy="500" r="8" opacity="0.3" />
            <circle cx="700" cy="700" r="8" opacity="0.3" />
            <path d="M0,0 L800,800" stroke="#FFFFFF" stroke-width="2" opacity="0.1" />
            <path d="M800,0 L0,800" stroke="#FFFFFF" stroke-width="2" opacity="0.1" />
            <path d="M400,0 L400,800" stroke="#FFFFFF" stroke-width="2" opacity="0.1" />
            <path d="M0,400 L800,400" stroke="#FFFFFF" stroke-width="2" opacity="0.1" />
            <rect x="0" y="0" width="100" height="100" stroke="#FFFFFF" stroke-width="1" opacity="0.05" />
            <rect x="100" y="0" width="100" height="100" stroke="#FFFFFF" stroke-width="1" opacity="0.05" />
            <rect x="200" y="0" width="100" height="100" stroke="#FFFFFF" stroke-width="1" opacity="0.05" />
            <rect x="300" y="0" width="100" height="100" stroke="#FFFFFF" stroke-width="1" opacity="0.05" />
            <rect x="400" y="0" width="100" height="100" stroke="#FFFFFF" stroke-width="1" opacity="0.05" />
            <rect x="500" y="0" width="100" height="100" stroke="#FFFFFF" stroke-width="1" opacity="0.05" />
            <rect x="600" y="0" width="100" height="100" stroke="#FFFFFF" stroke-width="1" opacity="0.05" />
            <rect x="700" y="0" width="100" height="100" stroke="#FFFFFF" stroke-width="1" opacity="0.05" />
            <rect x="0" y="100" width="100" height="100" stroke="#FFFFFF" stroke-width="1" opacity="0.05" />
            <rect x="100" y="100" width="100" height="100" stroke="#FFFFFF" stroke-width="1" opacity="0.05" />
            <rect x="200" y="100" width="100" height="100" stroke="#FFFFFF" stroke-width="1" opacity="0.05" />
            <rect x="300" y="100" width="100" height="100" stroke="#FFFFFF" stroke-width="1" opacity="0.05" />
            <rect x="400" y="100" width="100" height="100" stroke="#FFFFFF" stroke-width="1" opacity="0.05" />
            <rect x="500" y="100" width="100" height="100" stroke="#FFFFFF" stroke-width="1" opacity="0.05" />
            <rect x="600" y="100" width="100" height="100" stroke="#FFFFFF" stroke-width="1" opacity="0.05" />
            <rect x="700" y="100" width="100" height="100" stroke="#FFFFFF" stroke-width="1" opacity="0.05" />
        </g>
    </g>
</svg> 